<?xml version="1.0" standalone="no"?>
<!DOCTYPE svg PUBLIC "-//W3C//DTD SVG 20010904//EN"
 "http://www.w3.org/TR/2001/REC-SVG-20010904/DTD/svg10.dtd">
<svg version="1.0" xmlns="http://www.w3.org/2000/svg"
 width="203.000000pt" height="203.000000pt" viewBox="0 0 203.000000 203.000000"
 preserveAspectRatio="xMidYMid meet">
<metadata>
Created by potrace 1.14, written by Peter Selinger 2001-2017
</metadata>
<g transform="translate(0.000000,203.000000) scale(0.100000,-0.100000)"
fill="#000000" stroke="none">
<path d="M840 2016 c-548 -98 -907 -610 -814 -1157 19 -110 59 -225 109 -315
35 -63 136 -196 168 -223 15 -11 17 -35 17 -162 0 -82 1 -149 3 -149 1 0 69
22 151 48 l148 48 82 -28 c261 -87 564 -53 809 91 227 133 402 367 469 626 32
128 32 341 -1 469 -96 369 -362 641 -719 732 -121 31 -310 40 -422 20z m789
-478 c20 -83 25 -210 12 -280 -7 -35 -33 -126 -57 -203 -63 -197 -71 -262 -49
-400 10 -60 20 -134 22 -162 l5 -53 -226 0 c-177 0 -226 3 -226 13 0 7 9 64
21 127 34 183 25 284 -42 485 -53 160 -53 160 -53 290 -1 78 4 151 12 183 l14
52 277 0 278 0 12 -52z m-789 -554 l-180 -225 0 -125 c0 -110 2 -125 18 -130
40 -13 113 -49 124 -61 8 -11 -23 -13 -177 -13 -154 0 -185 2 -177 13 11 12
84 48 125 61 15 5 17 20 17 132 l0 126 -175 219 c-96 120 -175 221 -175 224 0
3 175 5 390 5 l390 0 -180 -226z"/>
<path d="M1106 1499 c-3 -17 -6 -44 -6 -60 l0 -29 240 0 240 0 0 23 c0 12 -3
39 -6 60 l-7 37 -227 0 -227 0 -7 -31z"/>
<path d="M1090 1328 c1 -33 33 -160 69 -271 21 -67 45 -149 51 -182 14 -67 8
-201 -14 -302 -7 -34 -11 -65 -8 -68 3 -3 73 -5 155 -5 l150 0 -7 43 c-4 23
-11 65 -16 92 -14 77 -11 203 6 275 8 36 33 121 55 190 23 69 44 151 46 183
l6 57 -247 0 c-190 0 -246 -3 -246 -12z m326 -93 c7 -18 -13 -45 -33 -45 -17
0 -27 24 -19 45 7 20 45 19 52 0z m59 -115 c0 -18 -6 -26 -23 -28 -24 -4 -38
18 -28 44 3 9 15 14 28 12 17 -2 23 -10 23 -28z m-80 -100 c0 -18 -6 -26 -23
-28 -13 -2 -25 3 -28 12 -10 26 4 48 28 44 17 -2 23 -10 23 -28z m50 -135 c0
-30 -39 -27 -43 3 -3 20 0 23 20 20 15 -2 23 -10 23 -23z m-32 -147 c7 -21 -4
-38 -23 -38 -23 0 -34 16 -26 35 7 18 43 20 49 3z"/>
<path d="M370 1142 c0 -5 10 -18 23 -30 22 -21 31 -22 238 -21 l214 0 23 30
24 29 -261 0 c-144 0 -261 -4 -261 -8z"/>
<path d="M477 1008 c39 -52 147 -188 149 -188 3 0 137 170 148 188 6 9 -27 12
-150 12 -123 0 -154 -3 -147 -12z"/>
</g>
</svg>
