<svg width="52" height="59" viewBox="0 0 52 59" fill="none" xmlns="http://www.w3.org/2000/svg">
<g filter="url(#filter0_d_373_118)">
<path d="M41.5554 37.5475L29.591 49.5123C29.1195 49.9839 28.5597 50.3581 27.9435 50.6133C27.3274 50.8686 26.6669 51 25.9999 51C25.333 51 24.6725 50.8686 24.0564 50.6133C23.4402 50.3581 22.8804 49.9839 22.4089 49.5123L10.4445 37.5475C8.40149 35.5052 6.78085 33.0807 5.6751 30.4123C4.56936 27.7439 4.00016 24.8838 4 21.9955C3.99984 19.1072 4.56873 16.2471 5.67419 13.5786C6.77964 10.91 8.40002 8.4853 10.4428 6.44283C12.4856 4.40036 14.9107 2.78014 17.5798 1.67468C20.2489 0.569212 23.1097 0.000157114 25.9988 3.25293e-08C28.8878 -0.000157049 31.7486 0.568587 34.4179 1.67376C37.0871 2.77893 39.5124 4.39889 41.5554 6.44114C43.5986 8.48352 45.2193 10.9083 46.3251 13.5769C47.4309 16.2455 48 19.1058 48 21.9943C48 24.8829 47.4309 27.7431 46.3251 30.4118C45.2193 33.0804 43.5986 35.5051 41.5554 37.5475ZM37.9678 10.0312C34.7937 6.85799 30.4888 5.0719 25.9999 5.0719C21.5111 5.0719 17.2062 6.85461 14.0321 10.0279C10.8581 13.2011 9.07489 17.505 9.07489 21.9926C9.07489 26.4803 10.8581 30.7841 14.0321 33.9574L25.9999 45.9188L37.9678 33.9608C39.5397 32.3897 40.7866 30.5244 41.6373 28.4715C42.4881 26.4185 42.9259 24.2182 42.9259 21.996C42.9259 19.7739 42.4881 17.5735 41.6373 15.5205C40.7866 13.4676 39.5397 11.6023 37.9678 10.0312Z" fill="#525252"/>
<path d="M25.0182 18.8086C25.0182 19.6854 24.2881 20.6237 23.3414 20.6237V35.4239C23.3414 37.5254 20.7243 37.5254 20.7243 35.4239V20.6237C19.8026 20.6237 19 19.847 19 18.6834V10.5382C19 9.82942 19.936 9.80256 19.936 10.5659V16.5866H20.7199V10.5104C20.7199 9.85932 21.6219 9.81773 21.6219 10.5382V16.5871H22.4319V10.5191C22.4319 9.83809 23.3069 9.8108 23.3069 10.546V16.5871H24.1039V10.5191C24.1039 9.84502 25.0182 9.81859 25.0182 10.546V18.8086ZM31.9996 12.4317V35.4174C31.9996 37.4721 29.377 37.4418 29.377 35.4174V26.297H27.9809V12.4317C27.9809 9.20387 31.9996 9.20387 31.9996 12.4317Z" fill="#525252"/>
</g>
<defs>
<filter id="filter0_d_373_118" x="0" y="0" width="52" height="59" filterUnits="userSpaceOnUse" color-interpolation-filters="sRGB">
<feFlood flood-opacity="0" result="BackgroundImageFix"/>
<feColorMatrix in="SourceAlpha" type="matrix" values="0 0 0 0 0 0 0 0 0 0 0 0 0 0 0 0 0 0 127 0" result="hardAlpha"/>
<feOffset dy="4"/>
<feGaussianBlur stdDeviation="2"/>
<feComposite in2="hardAlpha" operator="out"/>
<feColorMatrix type="matrix" values="0 0 0 0 0 0 0 0 0 0 0 0 0 0 0 0 0 0 0.25 0"/>
<feBlend mode="normal" in2="BackgroundImageFix" result="effect1_dropShadow_373_118"/>
<feBlend mode="normal" in="SourceGraphic" in2="effect1_dropShadow_373_118" result="shape"/>
</filter>
</defs>
</svg>
