<svg width="101" height="100" viewBox="0 0 101 100" fill="none" xmlns="http://www.w3.org/2000/svg">
<path d="M45.0008 1.03984e-06C42.7076 -0.000490585 40.4177 0.173344 38.1508 0.520001C35.9426 0.858015 33.7628 1.36109 31.6298 2.025C16.8368 6.63 5.30582 18.666 1.41882 33.76V33.764C1.04641 35.2101 0.746705 36.6739 0.52082 38.15V38.154C0.40682 38.898 0.31082 39.648 0.23282 40.402V40.404C-0.000957355 42.6989 -0.0587928 45.0083 0.0598202 47.312V47.314C0.0982176 48.076 0.155903 48.8369 0.23282 49.596V49.598C0.30982 50.353 0.40682 51.102 0.52082 51.846V51.85C0.746705 53.3261 1.04641 54.7899 1.41882 56.236V56.24C5.30582 71.334 16.8368 83.37 31.6288 87.975C32.3328 88.193 33.0428 88.397 33.7608 88.582H33.7648C34.4818 88.767 35.2048 88.934 35.9368 89.084H35.9398C36.6708 89.234 37.4078 89.367 38.1508 89.48H38.1548C38.8988 89.594 39.6488 89.69 40.4028 89.768H40.4048C42.6994 90.0017 45.0084 90.0596 47.3118 89.941C48.4698 89.883 49.6118 89.766 50.7448 89.621C51.1088 89.575 51.4748 89.538 51.8368 89.482L51.8468 89.48C54.0564 89.1423 56.2375 88.6392 58.3718 87.975C63.9565 86.2302 69.1462 83.4103 73.6488 79.674C69.5998 81.312 65.1838 81.997 60.8268 81.724C55.8306 83.8854 50.4445 85.0003 45.0008 85C39.9528 85.0034 34.9499 84.0503 30.2568 82.191C30.5858 81.877 30.9548 81.617 31.4228 81.482C37.2558 82.892 34.7178 75.677 38.6788 74.045C41.3318 69.181 32.8608 68.405 29.8368 66.635C24.7228 65.862 25.2018 59.639 20.5568 58.293C16.7538 57.686 18.1348 52.205 15.3468 52.498C12.9398 52.945 11.9848 49.635 10.6438 49.871C10.3198 50.213 8.96382 47.649 7.50682 50.475C4.01982 49.703 5.54282 46.197 5.03782 43.533C5.18845 39.2102 6.04056 34.9405 7.56082 30.891C8.41282 31.661 8.00682 34.121 8.14782 35.789C9.80782 36.5 9.02782 29.512 12.4768 29.349C14.8228 26.708 17.5448 24.459 20.3968 22.641C21.5098 23.434 23.9018 23.338 25.7788 21.576C23.6878 21.156 23.5388 19.559 26.3338 18.932C30.7818 17.02 24.3278 21.027 27.9588 21.605C31.9008 22.767 28.5568 18.177 30.4258 16.383C28.4698 15.051 31.6088 9.871 28.1878 12.172C29.3708 11.326 27.5308 9.739 28.5878 9.119C29.0248 10.343 31.2238 12.024 32.0058 9.201C33.5558 9.466 33.8628 7.957 34.3218 6.447C35.4429 6.13847 36.577 5.87922 37.7208 5.67C37.3368 7.117 35.9468 9.352 35.8338 10.8C37.6278 16.03 40.6558 8.784 43.8458 8.605C46.6008 8.699 47.1628 6.855 47.2418 5.066C50.9298 5.269 54.4808 5.976 57.8338 7.107C58.1198 9.676 59.2278 13.729 62.0388 12.834C61.4528 12.964 63.9048 15.388 62.6368 15.794C61.9628 20.33 58.2838 12.77 56.4178 12.869C53.6288 13.339 56.9478 14.719 55.9408 15.395C53.3008 17.662 58.2258 20.041 57.8278 16.23C58.1508 19.303 59.1928 19.207 61.6838 19.047C56.7658 19.877 62.7038 21.637 62.5508 23.289C64.1602 23.2845 65.7674 23.4092 67.3568 23.662C67.7238 23.386 68.1908 23.25 68.8138 23.326C68.7627 23.5119 68.7341 23.7033 68.7288 23.896C69.0968 23.973 69.4648 24.056 69.8298 24.146C69.9578 23.983 70.5348 24.169 71.1598 24.508L71.1858 24.516C72.2358 24.819 73.2618 25.193 74.2658 25.619C74.4158 25.19 74.6878 25.037 75.2758 25.584C75.4658 25.914 75.6608 26.162 75.8558 26.352C76.1628 26.506 76.4638 26.672 76.7658 26.838C77.6758 26.974 78.4658 26.18 78.7158 26.121C79.1838 25.991 79.7698 26.029 80.2858 26.127C80.7658 27.027 81.2098 27.95 81.6228 28.889C81.2968 29.023 80.9008 29.136 80.4938 29.252C84.6138 32.406 87.9058 36.648 89.8588 41.459C89.5414 37.3645 88.6615 33.3333 87.2438 29.479C87.1518 29.228 87.0478 28.983 86.9508 28.734C86.7838 28.304 86.6188 27.873 86.4398 27.449C86.2808 27.077 86.1068 26.713 85.9398 26.346C85.8068 26.056 85.6828 25.763 85.5448 25.476C85.3518 25.077 85.1438 24.687 84.9388 24.295C84.8068 24.041 84.6838 23.782 84.5468 23.531C84.2062 22.9056 83.8508 22.2885 83.4808 21.68C77.4648 11.78 67.7398 4.38 56.2378 1.418L56.2248 1.414C54.7813 1.04323 53.3201 0.744857 51.8468 0.520001L51.8388 0.518001C51.094 0.403907 50.3464 0.308544 49.5968 0.232001H49.5908C48.8331 0.155488 48.0735 0.0981361 47.3128 0.060001C46.5431 0.0204945 45.7715 0.000488053 45.0008 1.03984e-06ZM29.8248 7.979C29.4318 8.365 28.8118 8.767 28.0908 8.887C26.9938 9.802 27.0048 9.557 27.3658 9.082C28.1731 8.68665 28.9936 8.31878 29.8258 7.979H29.8248ZM61.5908 8.594C61.7228 8.654 61.8558 8.712 61.9868 8.774C61.9738 8.909 61.7548 8.764 61.5908 8.594ZM48.0008 8.916C47.1958 8.95 46.5988 9.289 46.9268 10.164C47.3968 10.617 48.0818 10.727 48.7068 10.73C52.5488 10.253 49.7708 8.842 48.0008 8.916ZM61.6138 9.619C61.7838 9.635 62.1838 9.786 62.9238 10.16C64.4228 12.05 60.8758 9.551 61.6138 9.619ZM25.8958 9.836C25.7488 10.974 24.6078 12.673 23.4308 12.795C22.4908 12.708 21.8488 14.189 21.1218 14.674C21.0918 14.814 21.1118 13.866 21.3318 12.742C22.7857 11.6713 24.3106 10.7004 25.8958 9.836ZM54.2138 11.006C54.1648 11.027 54.1238 11.118 54.1098 11.316C54.8148 12.107 54.4258 10.913 54.2138 11.006ZM56.9338 11.66C56.8768 11.644 56.8718 11.77 56.9868 12.164C57.7438 13.025 57.1058 11.707 56.9338 11.66ZM64.6398 11.668C65.2588 11.665 66.9908 12.743 66.6418 13.918C64.9688 15.27 65.7418 14.548 65.4148 13.051C64.2948 12.06 64.2678 11.67 64.6398 11.668ZM16.1238 17.314C16.2048 17.397 16.2908 17.498 16.3958 17.656C16.0358 18.762 15.7268 18.32 15.6508 17.811C15.8068 17.643 15.9658 17.479 16.1238 17.314ZM24.2158 18.199C24.3258 18.201 24.5088 18.289 24.7758 18.541C24.1918 18.981 23.8828 18.195 24.2158 18.199ZM75.3118 18.893C76.0218 19.7152 76.698 20.5659 77.3388 21.443C76.7758 22.427 75.4098 19.86 75.3118 18.893ZM15.9248 19.367C15.9828 19.354 16.0448 19.391 16.1078 19.498C15.2688 21.97 15.5148 19.457 15.9248 19.367ZM70.3598 21.908C70.389 21.9026 70.4189 21.9032 70.4478 21.91C70.9518 21.994 72.9378 23.124 73.7298 23.91C74.2138 24.995 72.1398 23.062 71.7198 23.187C70.5448 22.311 70.2198 21.951 70.3598 21.908ZM14.8898 21.928C14.9918 21.948 15.0718 22.054 15.0948 22.297C13.5758 23.352 14.4448 21.839 14.8898 21.928ZM76.4288 23.939C76.5058 23.906 76.7298 24.031 77.1898 24.465C77.2718 25.565 76.1948 24.039 76.4288 23.939ZM78.6458 26.929C78.4608 26.954 78.2718 27.159 78.1318 27.633C78.3078 27.743 78.4848 27.852 78.6588 27.965C79.6248 28.128 79.1708 26.86 78.6458 26.929ZM9.74082 35.064C9.65882 35.064 9.61082 35.269 9.65882 35.854C10.5368 36.9 9.98782 35.061 9.74082 35.064ZM9.25282 36.55C9.17082 36.536 9.04782 36.778 8.88282 37.505C9.37882 38.946 9.49982 36.591 9.25282 36.55ZM62.7998 36.853C61.8713 36.8491 60.9446 36.9328 60.0318 37.103C58.6848 39.532 56.8238 41.703 55.9498 44.667C55.6898 47.206 56.5318 50.716 56.1788 53.454C56.9988 56.966 60.3228 58.977 63.2188 60.696C65.3988 62.1 67.6708 59.411 70.0168 59.38C72.0688 56.362 75.3548 58.573 77.2098 58.35C76.897 58.8307 76.6876 59.3711 76.5948 59.937C78.8668 55.647 79.0558 50.271 76.9328 45.876C74.4548 40.499 68.7298 36.812 62.7998 36.853ZM6.73982 37.31C4.99182 37.129 8.20582 40.213 8.33282 41.573C11.5678 42.446 7.87982 43.433 10.6158 44.536C14.7358 46.019 12.1898 42.706 10.4418 42.009C11.1278 40.909 8.70382 40.097 7.81282 37.601C7.33782 37.427 6.98982 37.335 6.73982 37.31ZM57.7698 37.997C57.5848 37.997 57.3798 38.34 57.2938 39.36C58.5018 39.65 58.1788 37.997 57.7698 37.997ZM10.1378 38.733C10.1264 38.7293 10.1144 38.7281 10.1024 38.7294C10.0905 38.7308 10.0791 38.7348 10.0688 38.741C9.97482 38.802 9.96882 39.096 10.2308 39.735L10.4348 39.87C10.6028 39.272 10.3168 38.78 10.1378 38.733ZM55.1808 38.831C54.8158 39.033 54.4578 39.245 54.1108 39.474C54.1358 39.548 54.1458 39.614 54.2008 39.704L54.3578 39.778H55.2548C57.5768 39.701 56.3148 38.976 55.1808 38.831ZM7.63382 42.088C7.39682 42.038 7.36382 42.31 7.93082 43.268C9.66182 43.869 8.15482 42.198 7.63382 42.088ZM13.5688 44.623C13.3528 44.65 13.1598 44.881 13.1088 45.477C15.0908 46.287 14.2188 44.542 13.5688 44.623ZM16.7278 47.904C16.6398 47.87 16.5498 48.264 16.4908 49.447L16.5258 50.1C17.2288 51.975 16.9898 48.008 16.7278 47.904ZM48.2958 50.544C48.0718 50.521 48.0698 50.695 48.6918 51.287C50.3548 51.617 48.7888 50.597 48.2958 50.544ZM6.15882 50.844C6.24682 50.867 6.31382 51.06 6.35982 51.611C6.53982 52.811 6.45482 54.019 6.32082 55.229C5.97691 53.9203 5.69988 52.5949 5.49082 51.258C5.76882 51.316 5.99782 50.801 6.15882 50.844ZM50.7138 51.1C50.6108 51.101 50.4748 51.177 50.3058 51.371C50.9958 52.455 51.1608 51.092 50.7138 51.1ZM50.3138 52.285C50.1548 52.311 49.9318 52.415 49.6318 52.643C50.4588 53.535 51.0008 52.174 50.3138 52.285ZM49.1508 52.459C49.0668 52.45 48.9388 52.574 48.7648 52.949C49.2598 53.711 49.4048 52.486 49.1508 52.459ZM75.4508 60.839C75.3658 60.831 75.2378 60.954 75.0628 61.33C75.5588 62.092 75.7028 60.867 75.4498 60.84L75.4508 60.839Z" fill="#525252" fill-opacity="0.51"/>
<path d="M63 40.167C56.19 40.167 50.667 45.687 50.667 52.5C50.667 59.313 56.19 64.833 63 64.833C69.812 64.833 75.333 59.313 75.333 52.5C75.333 45.687 69.813 40.167 63 40.167ZM63 43.167C64.85 43.167 66.572 43.715 68.024 44.647L55.147 57.524C54.1806 56.0266 53.6668 54.2822 53.667 52.5C53.667 47.354 57.854 43.167 63 43.167ZM63 61.833C61.2179 61.8328 59.4736 61.3189 57.976 60.353L70.852 47.476C71.8184 48.9734 72.3322 50.7178 72.332 52.5C72.332 57.646 68.146 61.833 63 61.833Z" fill="#656565"/>
<path d="M66.1299 27.495C59.7079 26.625 52.9549 28.197 47.4099 32.42C36.3199 40.864 34.1629 56.786 42.6079 67.876C50.5129 78.256 64.9479 80.759 75.8579 74.113L77.9409 76.849C77.7382 77.3207 77.6427 77.788 77.661 78.2186C77.6793 78.6492 77.8109 79.0329 78.0469 79.343L93.1669 99.198C93.5992 99.7654 94.3531 100.051 95.263 99.9922C96.1729 99.9333 97.1642 99.5347 98.0189 98.884C98.4423 98.5617 98.8194 98.1872 99.1286 97.7819C99.4378 97.3765 99.6732 96.9482 99.8212 96.5215C99.9692 96.0948 100.027 95.678 99.9913 95.295C99.9555 94.9119 99.827 94.5701 99.6129 94.289L84.4929 74.434C84.2566 74.1242 83.9218 73.8953 83.5116 73.7632C83.1013 73.6311 82.6255 73.599 82.1169 73.669L80.0329 70.932C89.3429 62.182 90.7699 47.602 82.8659 37.222C78.6429 31.676 72.5519 28.365 66.1299 27.495ZM65.3799 33.032C67.9425 33.378 70.4115 34.2272 72.6448 35.5308C74.8781 36.8344 76.8315 38.5667 78.3929 40.628C79.9639 42.6818 81.1137 45.0257 81.7764 47.5251C82.439 50.0244 82.6015 52.6301 82.2545 55.1924C81.9074 57.7548 81.0577 60.2233 79.7541 62.4564C78.4504 64.6895 76.7186 66.6431 74.6579 68.205C72.6041 69.7758 70.2603 70.9255 67.761 71.5881C65.2618 72.2507 62.6562 72.4131 60.094 72.0661C57.5318 71.719 55.0633 70.8694 52.8303 69.5658C50.5974 68.2623 48.6438 66.5305 47.0819 64.47C45.511 62.4163 44.3613 60.0725 43.6986 57.5733C43.0359 55.074 42.8734 52.4685 43.2204 49.9063C43.5673 47.3441 44.4169 44.8756 45.7203 42.6426C47.0238 40.4096 48.7554 38.456 50.8159 36.894C52.8691 35.322 55.2128 34.1715 57.7123 33.5087C60.2117 32.8459 62.8176 32.6839 65.3799 33.032Z" fill="#525252"/>
</svg>
